<?xml version="1.0" encoding="UTF-8" standalone="no"?>
<svg width="64px" height="64px" viewBox="0 0 64 64" version="1.1" xmlns="http://www.w3.org/2000/svg" xmlns:xlink="http://www.w3.org/1999/xlink" xmlns:sketch="http://www.bohemiancoding.com/sketch/ns">
    <!-- Generator: Sketch 3.4.2 (15855) - http://www.bohemiancoding.com/sketch -->
    <title>Favicon</title>
    <desc>Created with Sketch.</desc>
    <defs></defs>
    <g id="Page-1" stroke="none" stroke-width="1" fill="none" fill-rule="evenodd" sketch:type="MSPage">
        <g id="Favicon" sketch:type="MSArtboardGroup">
            <g id="Pictograms-nps-land-playground-2" sketch:type="MSLayerGroup">
                <g id="Group" sketch:type="MSShapeGroup">
                    <path d="M6.80228571,0.250084034 C3.16342857,0.250084034 0.201680672,3.21236975 0.201680672,6.84692437 L0.201680672,57.413916 C0.201680672,61.0441681 3.16396639,63.9978487 6.80228571,63.9978487 L57.3569076,63.9978487 C60.9914622,63.9978487 63.9618151,61.0441681 63.9618151,57.413916 L63.9618151,6.84638655 C63.9618151,3.21183193 60.9914622,0.249546218 57.3569076,0.249546218 L6.80228571,0.249546218 L6.80228571,0.250084034 Z" id="Shape" fill="#377BB5"></path>
                    <path d="M13.2603697,31.8886723 C16.2140504,31.8886723 18.6051765,29.498084 18.6051765,26.5438655 C18.6051765,23.6025546 16.2145882,21.2119664 13.2603697,21.2119664 C10.3190588,21.2119664 7.92847059,23.6025546 7.92847059,26.5438655 C7.92847059,29.498084 10.3195966,31.8886723 13.2603697,31.8886723 L13.2603697,31.8886723 Z" id="Shape" fill="#FFFFFF"></path>
                    <path d="M43.1892437,41.0648739 C43.4371765,40.8970756 43.7647059,40.9470924 43.9497143,41.1826555 L44.9328403,42.5481681 C45.1049412,42.7874958 45.0549244,43.1279328 44.8150588,43.3129412 L37.5669244,48.5776134 C37.3313613,48.7454118 36.9914622,48.695395 36.8064538,48.4598319 L35.8233277,47.0943193 C35.6555294,46.8549916 35.7055462,46.5145546 35.9454118,46.3295462 L43.1892437,41.0648739 L43.1892437,41.0648739 Z" id="Shape" fill="#FFFFFF"></path>
                    <path d="M34.9999328,34.2792605 L32.122084,29.2372437 L30.6135126,30.3381513 L33.4875966,35.4054454 L34.9999328,34.2792605 Z" id="Shape" fill="#FFFFFF"></path>
                    <path d="M28.2901513,22.4978824 L17.1089748,2.87193277 L14.9663193,2.88430252 L26.7649076,23.6154622 L28.2901513,22.4978824 Z" id="Shape" fill="#FFFFFF"></path>
                    <path d="M38.8151933,32.8847059 C39.4455126,32.4264874 40.1683361,32.0736807 40.9960336,32.0736807 L51.3823193,32.0860504 C53.4034286,32.0860504 55.0292437,33.7247731 55.0292437,35.7329748 C55.0292437,37.7583866 53.4034286,39.3842017 51.3823193,39.3842017 L42.7143529,39.3718319 L31.6514958,47.182521 C27.7523361,49.9936807 25.3870252,46.9093109 25.3870252,46.9093109 L16.7018487,38.216605 C15.2438319,36.4687059 15.5589916,33.1493109 17.3068908,31.6789244 L29.3275966,23.1152941 C30.5210084,22.1192605 32.2941849,22.2752269 33.3025882,23.4600336 C34.3023866,24.6534454 34.1426555,26.4389916 32.9497815,27.4350252 L25.2563361,33.0691765 L30.7813109,38.5312269 L38.8151933,32.8847059 L38.8151933,32.8847059 Z" id="Shape" fill="#FFFFFF"></path>
                </g>
            </g>
        </g>
    </g>
</svg>